<svg xmlns="http://www.w3.org/2000/svg" version="1.1" xmlns:xlink="http://www.w3.org/1999/xlink" xmlns:svgjs="http://svgjs.com/svgjs" width="512" height="512" x="0" y="0" viewBox="0 0 256 256" style="enable-background:new 0 0 512 512" xml:space="preserve" class=""><g><path fill="#a4c9ff" d="M219.873 177.942H15.829C9.296 177.942 4 172.646 4 166.113V15.921C4 9.388 9.296 4.092 15.829 4.092h204.044c6.533 0 11.829 5.296 11.829 11.829v150.192c.001 6.533-5.295 11.829-11.829 11.829z" data-original="#a4c9ff" class=""></path><path fill="#4671c6" d="M18.343 157.979V24.055a5.915 5.915 0 0 1 5.915-5.915h136.984a5.915 5.915 0 0 1 5.915 5.915v133.924a5.915 5.915 0 0 1-5.915 5.915H24.258a5.915 5.915 0 0 1-5.915-5.915z" data-original="#4671c6" class=""></path><path fill="#e0ebfc" d="M182.696 49.725V20.506a2.366 2.366 0 0 1 2.366-2.366h29.932a2.366 2.366 0 0 1 2.366 2.366v29.219a2.366 2.366 0 0 1-2.366 2.366h-29.932a2.366 2.366 0 0 1-2.366-2.366zM182.696 66.164v7.561a2.366 2.366 0 0 0 2.366 2.366h29.932a2.366 2.366 0 0 0 2.366-2.366v-7.561a2.366 2.366 0 0 0-2.366-2.366h-29.932a2.366 2.366 0 0 0-2.366 2.366zM182.696 89.578v7.561a2.366 2.366 0 0 0 2.366 2.366h29.932a2.366 2.366 0 0 0 2.366-2.366v-7.561a2.366 2.366 0 0 0-2.366-2.366h-29.932a2.366 2.366 0 0 0-2.366 2.366z" data-original="#e0ebfc"></path><path fill="#3762cc" d="M214.994 54.091h-29.932a4.37 4.37 0 0 1-4.366-4.366V20.506a4.37 4.37 0 0 1 4.366-4.366h29.932a4.37 4.37 0 0 1 4.366 4.366v29.219a4.372 4.372 0 0 1-4.366 4.366zm-29.932-33.95a.366.366 0 0 0-.366.366v29.219c0 .202.164.366.366.366h29.932a.366.366 0 0 0 .366-.366v-29.22a.366.366 0 0 0-.366-.366h-29.932zM214.994 78.09h-29.932a4.37 4.37 0 0 1-4.366-4.366v-7.561a4.37 4.37 0 0 1 4.366-4.366h29.932a4.37 4.37 0 0 1 4.366 4.366v7.561a4.371 4.371 0 0 1-4.366 4.366zm-29.932-12.292a.366.366 0 0 0-.366.366v7.561c0 .202.164.366.366.366h29.932a.366.366 0 0 0 .366-.366v-7.561a.366.366 0 0 0-.366-.366zM214.994 101.505h-29.932a4.37 4.37 0 0 1-4.366-4.366v-7.561a4.37 4.37 0 0 1 4.366-4.366h29.932a4.37 4.37 0 0 1 4.366 4.366v7.561a4.372 4.372 0 0 1-4.366 4.366zm-29.932-12.293a.366.366 0 0 0-.366.366v7.561c0 .202.164.366.366.366h29.932a.366.366 0 0 0 .366-.366v-7.561a.366.366 0 0 0-.366-.366z" data-original="#3762cc" class=""></path><path fill="#3762cc" d="M219.874 179.942H15.83c-7.625 0-13.83-6.204-13.83-13.83V15.921c0-7.625 6.204-13.83 13.83-13.83h204.044c7.625 0 13.829 6.204 13.829 13.83v150.191c0 7.626-6.204 13.83-13.829 13.83zM15.83 6.092c-5.42 0-9.83 4.41-9.83 9.83v150.191c0 5.42 4.41 9.83 9.83 9.83h204.044c5.42 0 9.829-4.41 9.829-9.83V15.921c0-5.42-4.409-9.83-9.829-9.83H15.83z" data-original="#3762cc" class=""></path><path fill="#3762cc" d="M161.243 165.894H24.258c-4.364 0-7.915-3.55-7.915-7.915V24.055c0-4.364 3.551-7.915 7.915-7.915h136.984c4.364 0 7.915 3.55 7.915 7.915v133.924c0 4.364-3.55 7.915-7.914 7.915zM24.258 20.141a3.92 3.92 0 0 0-3.915 3.915V157.98a3.92 3.92 0 0 0 3.915 3.915h136.984a3.92 3.92 0 0 0 3.915-3.915V24.055a3.92 3.92 0 0 0-3.915-3.915H24.258z" data-original="#3762cc" class=""></path><path fill="#e0ebfc" d="M182.696 112.992v7.561a2.366 2.366 0 0 0 2.366 2.366h29.932a2.366 2.366 0 0 0 2.366-2.366v-7.561a2.366 2.366 0 0 0-2.366-2.366h-29.932a2.366 2.366 0 0 0-2.366 2.366z" data-original="#e0ebfc"></path><path fill="#3762cc" d="M214.994 124.919h-29.932a4.37 4.37 0 0 1-4.366-4.366v-7.561a4.37 4.37 0 0 1 4.366-4.366h29.932a4.37 4.37 0 0 1 4.366 4.366v7.561a4.372 4.372 0 0 1-4.366 4.366zm-29.932-12.293a.366.366 0 0 0-.366.366v7.561c0 .202.164.366.366.366h29.932a.366.366 0 0 0 .366-.366v-7.561a.366.366 0 0 0-.366-.366z" data-original="#3762cc" class=""></path><path fill="#4671c6" d="M235.708 99.505h-37.131a3.51 3.51 0 0 0-3.468 2.959l-6.657 41.755a3.512 3.512 0 0 0 3.468 4.065h50.444a3.512 3.512 0 0 0 3.468-4.065l-6.657-41.755a3.51 3.51 0 0 0-3.467-2.959zM198.577 251.908h37.131a3.51 3.51 0 0 0 3.468-2.959l6.657-41.755a3.512 3.512 0 0 0-3.468-4.065H191.92a3.512 3.512 0 0 0-3.468 4.065l6.657 41.755a3.51 3.51 0 0 0 3.468 2.959z" data-original="#4671c6" class=""></path><path fill="#3762cc" d="M242.364 150.284H191.92a5.51 5.51 0 0 1-5.443-6.38l6.656-41.755a5.488 5.488 0 0 1 5.444-4.644h37.13a5.488 5.488 0 0 1 5.444 4.644l6.656 41.755c.254 1.596-.201 3.216-1.25 4.445s-2.577 1.935-4.193 1.935zm-43.787-48.779c-.748 0-1.376.536-1.494 1.274l-6.656 41.755c-.096.599.174 1.021.343 1.219s.543.531 1.15.531h50.444c.607 0 .981-.333 1.15-.531s.438-.62.343-1.219l-6.656-41.755a1.506 1.506 0 0 0-1.494-1.274zM235.708 253.908h-37.13a5.488 5.488 0 0 1-5.444-4.645l-6.656-41.755c-.254-1.596.201-3.216 1.25-4.445s2.577-1.935 4.193-1.935h50.444a5.51 5.51 0 0 1 5.443 6.38l-6.656 41.755a5.489 5.489 0 0 1-5.444 4.645zm-43.788-48.78c-.607 0-.981.333-1.15.531s-.438.62-.343 1.219l6.656 41.755a1.506 1.506 0 0 0 1.494 1.274h37.13c.748 0 1.376-.536 1.494-1.274l6.656-41.755c.096-.599-.174-1.021-.343-1.219s-.543-.531-1.15-.531z" data-original="#3762cc" class=""></path><path fill="#f9cfcf" d="M247.737 212.564h-61.189a6.263 6.263 0 0 1-6.263-6.263v-61.189a6.263 6.263 0 0 1 6.263-6.263h61.189a6.263 6.263 0 0 1 6.263 6.263v61.189a6.263 6.263 0 0 1-6.263 6.263z" data-original="#f9cfcf"></path><path fill="#3762cc" d="M247.737 214.564h-61.189c-4.556 0-8.263-3.707-8.263-8.263v-61.189c0-4.556 3.707-8.263 8.263-8.263h61.189c4.556 0 8.263 3.707 8.263 8.263v61.189c0 4.556-3.707 8.263-8.263 8.263zm-61.189-73.715a4.268 4.268 0 0 0-4.263 4.263v61.189a4.268 4.268 0 0 0 4.263 4.263h61.189a4.268 4.268 0 0 0 4.263-4.263v-61.189a4.268 4.268 0 0 0-4.263-4.263z" data-original="#3762cc" class=""></path><path fill="#f9a7a7" d="M59.482 121.945c2.077 1.701 4.939 1.698 7.012-.008l25.276-20.791c7.125-5.835 9.629-16.228 6.05-25.112-3.885-9.645-13.756-14.649-23.049-11.686-5.309 1.693-9.519 5.711-11.842 10.827-2.323-5.117-6.533-9.134-11.842-10.827-9.764-3.114-20.167 2.569-23.593 13.189-2.811 8.714.247 18.409 7.031 23.965z" data-original="#f9a7a7" class=""></path><path fill="#3762cc" d="M62.984 125.217a7.505 7.505 0 0 1-4.769-1.726L33.257 103.05c-7.615-6.237-10.696-16.736-7.667-26.127 3.741-11.595 15.206-17.957 26.104-14.48 4.544 1.449 8.497 4.513 11.234 8.623 2.737-4.11 6.69-7.174 11.235-8.623 10.273-3.28 21.242 2.244 25.511 12.844 3.918 9.726 1.189 20.996-6.638 27.406l-25.272 20.788a7.504 7.504 0 0 1-4.78 1.736zM45.681 65.502c-7.136 0-13.786 4.906-16.284 12.65-2.489 7.715.141 16.682 6.394 21.804l24.958 20.441c1.339 1.098 3.137 1.096 4.474-.005L90.5 99.602c6.491-5.316 8.737-14.699 5.465-22.82-3.479-8.635-12.328-13.16-20.586-10.528-4.609 1.47-8.483 5.023-10.629 9.749a2.002 2.002 0 0 1-3.642 0c-2.146-4.726-6.02-8.279-10.628-9.749a15.77 15.77 0 0 0-4.799-.752z" data-original="#3762cc" class=""></path><path fill="#6bdddd" d="M95.604 127.218a3.999 3.999 0 0 1-3.526-2.113L77.229 97.358H62.945a4 4 0 0 1 0-8h16.679a4 4 0 0 1 3.527 2.113l12.14 22.686 10.086-22.438a4 4 0 0 1 3.648-2.36h13.039l7.113-22.76a3.975 3.975 0 0 1 3.937-2.805 4 4 0 0 1 3.763 3.034l9.089 36.603 5.451-11.755a4 4 0 0 1 7.258 3.366l-10.227 22.052a4 4 0 0 1-7.511-.719l-8.384-33.762-3.731 11.939a4 4 0 0 1-3.818 2.807h-13.392l-12.361 27.5a4.001 4.001 0 0 1-3.511 2.358l-.136.001z" data-original="#6bdddd" class=""></path><path fill="#3762cc" d="M95.604 129.218a5.99 5.99 0 0 1-5.29-3.168L76.03 99.358H62.945c-3.309 0-6-2.691-6-6s2.691-6 6-6h16.679a5.992 5.992 0 0 1 5.29 3.168l10.221 19.1 8.418-18.727a6.009 6.009 0 0 1 5.473-3.541h11.568l6.674-21.357a6.02 6.02 0 0 1 5.911-4.208 6.02 6.02 0 0 1 5.64 4.551l7.722 31.095 3.063-6.605a5.959 5.959 0 0 1 3.379-3.11 5.967 5.967 0 0 1 4.588.191 6.007 6.007 0 0 1 2.919 7.967l-10.227 22.052a6.014 6.014 0 0 1-6.013 3.449 6.011 6.011 0 0 1-5.254-4.527l-6.663-26.833-1.602 5.125a5.976 5.976 0 0 1-5.727 4.21h-12.098l-11.831 26.319a5.964 5.964 0 0 1-5.266 3.537zm-32.659-37.86c-1.103 0-2 .897-2 2s.897 2 2 2h14.283c.738 0 1.416.406 1.763 1.056l14.849 27.747a1.997 1.997 0 0 0 1.763 1.056l.074-.001a1.983 1.983 0 0 0 1.75-1.179l12.361-27.499a2 2 0 0 1 1.824-1.18h13.392c.879 0 1.646-.564 1.909-1.403l3.73-11.939a2.01 2.01 0 0 1 1.969-1.402 1.997 1.997 0 0 1 1.881 1.517l8.384 33.762a2.005 2.005 0 0 0 1.751 1.509 2.01 2.01 0 0 0 2.005-1.15L156.862 94.2c.464-1 .027-2.192-.973-2.656a1.98 1.98 0 0 0-1.529-.063 1.985 1.985 0 0 0-1.126 1.036l-5.451 11.755a1.999 1.999 0 0 1-3.755-.36l-9.089-36.603a2.008 2.008 0 0 0-1.882-1.517 1.983 1.983 0 0 0-1.968 1.403l-7.112 22.76a2 2 0 0 1-1.909 1.403h-13.039c-.786 0-1.502.463-1.824 1.18l-10.086 22.438a1.999 1.999 0 0 1-1.755 1.179 2.022 2.022 0 0 1-1.832-1.055l-12.14-22.686a1.999 1.999 0 0 0-1.764-1.056z" data-original="#3762cc" class=""></path><path fill="#f9a7a7" d="M214.787 195.424a3.396 3.396 0 0 0 4.37-.005l15.752-12.957c4.44-3.637 6.001-10.114 3.77-15.65-2.421-6.011-8.573-9.13-14.365-7.283-3.309 1.055-5.932 3.559-7.38 6.748-1.448-3.189-4.072-5.693-7.38-6.748-6.085-1.941-12.569 1.601-14.704 8.22-1.752 5.431.154 11.473 4.382 14.936z" data-original="#f9a7a7" class=""></path><path fill="#3762cc" d="M216.969 198.22a5.43 5.43 0 0 1-3.449-1.248l-15.554-12.74c-4.984-4.082-7-10.952-5.018-17.097 2.461-7.626 10.024-11.808 17.215-9.511 2.665.85 5.019 2.538 6.773 4.802 1.754-2.264 4.108-3.953 6.772-4.802 6.784-2.165 14.018 1.466 16.828 8.44 2.564 6.364.771 13.743-4.358 17.945l-15.75 12.954a5.427 5.427 0 0 1-3.459 1.257zm-.915-4.343c.558.457 1.276.456 1.833-.002l15.752-12.957c3.794-3.108 5.103-8.6 3.186-13.358-2.019-5.012-7.134-7.641-11.902-6.125-2.669.852-4.917 2.918-6.167 5.67a2 2 0 0 1-3.642 0c-1.249-2.751-3.496-4.818-6.167-5.669-5.064-1.615-10.419 1.429-12.193 6.929-1.458 4.521.082 9.773 3.746 12.774z" data-original="#3762cc" class=""></path></g></svg>