<svg xmlns="http://www.w3.org/2000/svg" version="1.1" xmlns:xlink="http://www.w3.org/1999/xlink" xmlns:svgjs="http://svgjs.com/svgjs" width="512" height="512" x="0" y="0" viewBox="0 0 512 512" style="enable-background:new 0 0 512 512" xml:space="preserve" class=""><g><path d="M418.922 460.583c0 23.493-19.049 42.53-42.53 42.53h-241.43c-23.493 0-42.53-19.037-42.53-42.53V177.42c0-23.493 19.037-42.53 42.53-42.53h8.383v-30.685h224.652v30.685h8.395c23.48 0 42.53 19.037 42.53 42.53v283.163z" style="" fill="#f9cf70" data-original="#f9cf70" class=""></path><path d="M142.529 460.583V177.42c0-23.493 19.037-42.53 42.53-42.53h8.383v-30.685h-50.097v30.685h-8.383c-23.493 0-42.53 19.037-42.53 42.53v283.162c0 23.493 19.037 42.53 42.53 42.53h50.097c-23.493 0-42.53-19.037-42.53-42.529z" style="" fill="#eabb5e" data-original="#eabb5e" class=""></path><path d="M339.975 460.583V177.42c0-23.493-19.037-42.53-42.53-42.53h-8.383v-30.685h50.097v30.685h8.383c23.493 0 42.53 19.037 42.53 42.53v283.162c0 23.493-19.037 42.53-42.53 42.53h-50.097c23.493 0 42.53-19.037 42.53-42.529z" style="" fill="#fce4b1" data-original="#fce4b1" class=""></path><path d="M392.422 40.38v63.825H118.92V29.309c0-10.924 8.862-19.786 19.786-19.786h233.931c10.936 0 19.786 8.862 19.786 19.786V40.38z" style="" fill="#5bbaf4" data-original="#5bbaf4" class=""></path><path d="M170.471 29.309c0-10.924 8.862-19.786 19.786-19.786h-51.551c-10.924 0-19.786 8.862-19.786 19.786v74.896h51.551V29.309z" style="" fill="#3ca8d3" data-original="#3ca8d3" class=""></path><path d="M303.178 29.309c0-10.924-8.862-19.786-19.786-19.786h51.551c10.924 0 19.786 8.862 19.786 19.786v74.896h-51.551V29.309z" style="" fill="#93d7f9" data-original="#93d7f9" class=""></path><path d="M335.557 267.819v70.453h-44.653v44.653h-70.453v-44.653h-44.666v-70.453h44.666v-44.653h70.453v44.653z" style="" fill="#ed5343" data-original="#ed5343" class=""></path><path d="M377.525 125.388v-12.295h15.22a9.206 9.206 0 0 0 9.206-9.206V28.991C401.951 13.006 388.946 0 372.959 0H139.028c-15.986 0-28.991 13.006-28.991 28.991v74.896a9.206 9.206 0 0 0 9.206 9.206h15.22v12.295c-28.148.443-50.913 23.463-50.913 51.714v23.16a9.206 9.206 0 0 0 18.412 0v-23.16c0-18.374 14.949-33.324 33.324-33.324h166.743a9.206 9.206 0 0 0 9.206-9.206 9.205 9.205 0 0 0-9.206-9.206H152.873v-12.274h206.241v12.274h-23.333a9.206 9.206 0 0 0-9.206 9.206 9.205 9.205 0 0 0 9.206 9.206h40.934c18.376 0 33.324 14.949 33.324 33.324v273.957h-20.154a9.206 9.206 0 0 0-9.206 9.206 9.205 9.205 0 0 0 9.206 9.206h18.85c-4.005 13.91-16.839 24.119-32.021 24.119H135.285c-15.182 0-28.016-10.208-32.021-24.119h253.481a9.206 9.206 0 0 0 9.206-9.206 9.205 9.205 0 0 0-9.206-9.206H101.961V235.241a9.206 9.206 0 0 0-18.412 0v225.024c0 28.527 23.208 51.735 51.735 51.735h241.431c28.527 0 51.735-23.208 51.735-51.735V177.102c.001-28.255-22.77-51.278-50.925-51.714zm-249.077-76.12h185.24c5.085 0 9.206-4.122 9.206-9.206s-4.12-9.206-9.206-9.206h-185.24V28.99c0-5.834 4.746-10.58 10.58-10.58h233.931c5.834 0 10.58 4.746 10.58 10.58v1.866h-34.257c-5.085 0-9.206 4.122-9.206 9.206s4.12 9.206 9.206 9.206h34.257v45.414H128.448V49.268z" fill="#000000" data-original="#000000" class=""></path><path d="M291.227 213.642h-70.453a9.206 9.206 0 0 0-9.206 9.206v35.447h-35.46a9.206 9.206 0 0 0-9.206 9.206v70.453a9.206 9.206 0 0 0 9.206 9.206h35.46v35.447a9.206 9.206 0 0 0 9.206 9.206h70.453a9.206 9.206 0 0 0 9.206-9.206V347.16h35.448a9.206 9.206 0 0 0 9.206-9.206v-70.453a9.205 9.205 0 0 0-9.206-9.206h-35.448v-35.447c-.001-5.084-4.121-9.206-9.206-9.206zm35.447 63.064v52.042h-35.447a9.206 9.206 0 0 0-9.206 9.206v35.448h-52.042v-35.448a9.206 9.206 0 0 0-9.206-9.206h-35.46v-52.042h35.46a9.206 9.206 0 0 0 9.206-9.206v-35.447h52.042V267.5a9.205 9.205 0 0 0 9.206 9.206h35.447z" fill="#000000" data-original="#000000" class=""></path></g></svg>